<?xml version="1.0" encoding="utf-8"?>
<!-- Generator: Adobe Illustrator 28.1.0, SVG Export Plug-In . SVG Version: 6.00 Build 0)  -->
<svg version="1.1" id="Ebene_1" xmlns="http://www.w3.org/2000/svg" xmlns:xlink="http://www.w3.org/1999/xlink" x="0px" y="0px"
	 viewBox="0 0 1190.55 841.89" style="enable-background:new 0 0 1190.55 841.89;" xml:space="preserve">
<style type="text/css">
	.st0{fill:#E30613;}
</style>
<g>
	<rect x="338.48" y="367.71" class="st0" width="514.09" height="106.42"/>
	<g>
		<path d="M412.34,398.05l-20.71,45.74h6.73l5.02-11.43h24.32l5.02,11.43h6.86l-20.78-45.74H412.34z M405.68,427.13l9.86-22.44
			l9.86,22.44H405.68z"/>
		<rect x="446.39" y="398.05" width="6.53" height="45.74"/>
		<rect x="464.16" y="417.98" width="17.58" height="5.42"/>
		<polygon points="485.26,403.74 500.95,403.74 500.95,443.79 507.42,443.79 507.42,403.74 523.1,403.74 523.1,398.05 
			485.26,398.05 		"/>
		<path d="M558.32,427.98c2.83-1.26,5.01-3.08,6.53-5.46c1.52-2.37,2.29-5.22,2.29-8.53c0-3.31-0.76-6.16-2.29-8.56
			c-1.53-2.4-3.7-4.22-6.53-5.49c-2.83-1.26-6.25-1.9-10.26-1.9h-17.84v45.74h6.53v-13.92h11.3c1.01,0,1.97-0.04,2.9-0.12
			l9.84,14.04h7.12l-10.85-15.32C557.5,428.32,557.91,428.16,558.32,427.98z M547.86,424.32h-11.11v-20.58h11.11
			c4.18,0,7.35,0.89,9.51,2.68c2.16,1.79,3.23,4.31,3.23,7.58s-1.08,5.81-3.23,7.61C555.21,423.42,552.04,424.32,547.86,424.32z"/>
		<path d="M609.68,423.8c0,5.1-1.12,8.82-3.37,11.17c-2.24,2.35-5.44,3.53-9.57,3.53c-4.1,0-7.27-1.18-9.51-3.53
			c-2.24-2.35-3.37-6.08-3.37-11.17v-25.75h-6.53v26.01c0,6.62,1.72,11.65,5.16,15.09c3.44,3.44,8.17,5.16,14.18,5.16
			c6.05,0,10.79-1.72,14.21-5.16c3.42-3.44,5.13-8.47,5.13-15.09v-26.01h-6.34V423.8z"/>
		<path d="M654.99,421.77c-1.63-0.92-3.44-1.66-5.42-2.22c-1.98-0.57-3.95-1.08-5.91-1.54c-1.96-0.46-3.76-0.97-5.39-1.54
			c-1.63-0.57-2.96-1.33-3.99-2.29c-1.02-0.96-1.54-2.24-1.54-3.85c0-1.35,0.38-2.57,1.14-3.66c0.76-1.09,1.97-1.96,3.63-2.61
			c1.65-0.65,3.77-0.98,6.34-0.98c2.05,0,4.16,0.29,6.34,0.88c2.18,0.59,4.25,1.54,6.21,2.84l2.16-5.23
			c-1.92-1.31-4.18-2.31-6.8-3.01c-2.61-0.7-5.25-1.05-7.91-1.05c-4.01,0-7.31,0.6-9.9,1.8c-2.59,1.2-4.51,2.79-5.75,4.77
			c-1.24,1.98-1.86,4.15-1.86,6.5c0,2.44,0.5,4.43,1.5,5.98c1,1.55,2.32,2.78,3.95,3.69c1.63,0.91,3.44,1.67,5.42,2.25
			c1.98,0.59,3.95,1.1,5.91,1.54s3.76,0.95,5.39,1.54s2.96,1.36,3.99,2.32c1.02,0.96,1.54,2.22,1.54,3.79
			c0,1.35-0.39,2.56-1.18,3.63c-0.78,1.07-2,1.91-3.66,2.52c-1.66,0.61-3.81,0.92-6.47,0.92c-2.92,0-5.73-0.5-8.43-1.5
			c-2.7-1-4.92-2.26-6.67-3.79l-2.42,5.1c1.83,1.7,4.33,3.08,7.51,4.15c3.18,1.07,6.51,1.6,10,1.6c4.01,0,7.33-0.6,9.96-1.8
			c2.63-1.2,4.58-2.79,5.85-4.77c1.26-1.98,1.89-4.13,1.89-6.44c0-2.4-0.5-4.36-1.5-5.88C657.94,423.91,656.62,422.69,654.99,421.77
			z"/>
		<polygon points="662.73,403.74 678.42,403.74 678.42,443.79 684.89,443.79 684.89,403.74 700.57,403.74 700.57,398.05 
			662.73,398.05 		"/>
		<polygon points="758.59,402.5 758.59,398.05 721.67,398.05 721.67,403.74 749.94,403.74 721.21,439.35 721.21,443.79 
			759.44,443.79 759.44,438.11 729.99,438.11 		"/>
		<polygon points="761.6,398.05 761.6,403.74 777.28,403.74 777.28,443.79 783.75,443.79 783.75,403.74 799.43,403.74 
			799.43,398.05 		"/>
	</g>
</g>
</svg>
